<?xml version="1.0" encoding="utf-8"?>
<!-- Generator: Adobe Illustrator 22.1.0, SVG Export Plug-In . SVG Version: 6.00 Build 0)  -->
<svg version="1.1" id="Capa_1" xmlns="http://www.w3.org/2000/svg" xmlns:xlink="http://www.w3.org/1999/xlink" x="0px" y="0px"
	 viewBox="0 0 550.8 550.8" style="enable-background:new 0 0 550.8 550.8;" xml:space="preserve">
<style type="text/css">
	.st0{fill:#FFFFFF;}
</style>
<g>
	<path class="st0" d="M542,272.3c-12.4,0-24.6,0-37.2,0c-3.4,0-9-0.2-9-3.6c0-12.6,0-25,0-37.6c0-3.4,0.2-7.8-3.2-7.8
		c-12.6,0-24.9,0-37.4,0c-3.4,0-8.4-1-8.4-4.4c0-12.5,0-24.8,0-37.4c0-3.4-0.5-7.2-3.9-7.2c-12.6,0-24.9,0-37.3,0
		c-3.4,0-7.8-1.7-7.8-5.1c0-12.8,0-25.2,0-37.5c0-3.4-1.9-6.1-5.3-6.1c-12.2,0.1-24.7,0.1-37.4,0.1c-3.4,0-6.3,2.7-6.3,6.1
		c0,12.7,0,25,0,37.2c0,3.4-1.6,5.2-4.9,5.2c-45.9,0-91.4,0-137.3,0c-3.4,0-4.6-1.8-4.6-5.2c0-12.4,0-24.8,0-37.3
		c0-3.4-3.5-6.1-6.9-6.1c-12.6,0-24.3,0-36.4-0.1c-3.4,0-5.7,2.7-5.7,6.1c0,12.5,0,25,0,37.9c0,3.4-4.4,4.8-7.7,4.8
		c-12.6,0-25,0-37.6,0c-3.4,0-3.6,4.1-3.6,7.5c0,12.6,0,24.9,0,37.4c0,3.4-5.2,4.1-8.6,4.1c-12.6,0-24.9,0-37.5,0
		c-3.4,0-9,4.8-9,8.2c0,12.5,0,24.9,0,37.5c0,3.4,0.2,3.3-3.2,3.3c-12.4,0-24.7,0-36.9,0c-3.4,0-8.9,5.5-8.9,8.9
		c0,45.6,0,90.7,0,135.7c0,3.4,5.5,8.4,8.9,8.4c12.3,0,24.5,0,36.9,0c3.4,0,3.2-5,3.2-8.4c0-29,0-57.6,0-86.4c0-3.4,5.6-3.2,9-3.2
		c12.7,0,25.1,0,37.8,0c3.4,0,8.2-0.2,8.2,3.2c0,29,0,57.8,0,86.9c0,3.4,1.7,6.1,5.1,6.1c12.6,0,25.2,0,37.3,0.1
		c3.4,0,6.6-2.7,6.6-6.1c0-12.4,0-24.9,0-37.3c0-3.4,0.8-4,4.1-4c79.1,0,157.8,0,236.5,0c3.4,0,6.1,1.7,6.1,5.1
		c0,12.6,0,25.2-0.1,37.5c0,3.4,2.7,6.5,6.1,6.5c12.3,0,24.7,0,37.3,0c3.4,0,3.7-4.5,3.7-7.8c0-29.2,0-58,0-86.8
		c0-3.4,5.1-3.3,8.5-3.3c12.8,0,25.3,0,38,0c3.4,0,8.5-0.1,8.5,3.3c0,29,0,57.6,0,86.3c0,3.4,0.3,8.4,3.7,8.4c12.3,0,24.4,0,36.4,0
		c3.4,0,8.9-5,8.9-8.4c0-45.4,0-90.5,0-136C550.8,277.6,545.3,272.3,542,272.3z M202,268.5c0,3.4-3.8,3.9-7.2,3.9
		c-12.4,0-24.8,0-37.4,0c-3.4,0-4.4-0.5-4.4-3.9c0-12.4,0-24.7,0-37.3c0-3.4,1-7.8,4.4-7.8c12.5,0,24.9,0,37.4,0
		c3.4,0,7.2,4.4,7.2,7.8C202,243.6,202,255.9,202,268.5z M397.8,268.6c0,3.4-1,3.8-4.4,3.8c-12.4,0-24.7,0-37.3,0
		c-3.4,0-7.2-0.4-7.2-3.8c0-12.5,0-24.9,0-37.3c0-3.4,3.9-7.8,7.2-7.8c12.5,0,24.8,0,37.3,0c3.4,0,4.4,4.5,4.4,7.8
		C397.8,243.6,397.8,256,397.8,268.6z"/>
	<path class="st0" d="M244.3,424.1c-9.2,0-18.5,0-27.6,0c-19.8-0.1-39.7-0.1-59.5-0.2c-3.4,0-6.2,2.7-6.1,6.1
		c0.1,12.2,0.1,25.3,0.1,37.5c0,3.4,2.7,6.8,6.1,6.8c29.4,0,58,0,86.6,0c3.4,0,7-4.2,7-7.6c0-12.2,0-24.3,0-36.5
		C250.9,426.8,247.7,424.1,244.3,424.1z"/>
	<path class="st0" d="M395.8,423.9c-0.9,0.1-1.5,0.8-2.4,0.8c-29.1,0-57.8,0.6-87,0.6c-0.9,0-1.9,0-2.8,0c-1.5,0-3.8,1.5-3.8,4.8
		c0,12.5,0,24.6,0,36.6c0,3.4,3.8,7.5,7.2,7.5c28.8,0,57.4,0,86.5,0c3.4,0,4.3-4.1,4.3-7.5c0-12.5,0-24.8,0-37.1
		C397.8,426.4,397.4,423.8,395.8,423.9z"/>
	<path class="st0" d="M108.2,125.5c12.5,0,24.8,0,37.1,0c3.4,0,6.1-2.6,6.1-6c-0.1-12.2-0.1-24.6-0.1-36.8c0-3.4-2.7-6.1-6.1-6.1
		c-12.7,0-24.8,0-36.9,0c-3.4,0-4.2,2.8-4.2,6.2c0,12.2,0,24.4,0,36.8C104,122.9,104.8,125.5,108.2,125.5z"/>
	<path class="st0" d="M404.8,125.8c12.2-0.1,24.1-0.1,36.3-0.1c3.4,0,5.6-2.7,5.6-6.1c0-12.7,0-24.8,0-36.9c0-3.4-0.8-6.2-4.2-6.2
		c-12.2,0-24.3,0-36.8,0c-3.4,0-8,2.8-8,6.2c0,12.5,0,24.8,0,37.1C397.8,123.1,401.5,125.8,404.8,125.8z"/>
</g>
</svg>
