<?xml version="1.0" encoding="utf-8"?>
<!-- Generator: Adobe Illustrator 22.1.0, SVG Export Plug-In . SVG Version: 6.00 Build 0)  -->
<svg version="1.1" id="Layer_1" xmlns="http://www.w3.org/2000/svg" xmlns:xlink="http://www.w3.org/1999/xlink" x="0px" y="0px"
	 viewBox="0 0 512 512" style="enable-background:new 0 0 512 512;" xml:space="preserve">
<style type="text/css">
	.st0{fill:#FFFFFF;}
</style>
<g>
	<g>
		<path class="st0" d="M193.1,358h-80.3c-6,0-10.8,4.9-10.8,10.8v80.3c0,6,4.9,10.8,10.8,10.8h80.3c6,0,10.8-4.9,10.8-10.8v-80.3
			C203.9,362.8,199.1,358,193.1,358z"/>
	</g>
</g>
<g>
	<g>
		<path class="st0" d="M91.1,256H10.8c-6,0-10.8,4.9-10.8,10.8v80.3c0,6,4.9,10.8,10.8,10.8h80.3c6,0,10.8-4.9,10.8-10.8v-80.3
			C102,260.9,97.1,256,91.1,256z"/>
	</g>
</g>
<g>
	<g>
		<path class="st0" d="M295.1,256h-80.3c-6,0-10.8,4.9-10.8,10.8v80.3c0,6,4.9,10.8,10.8,10.8h80.3c6,0,10.8-4.9,10.8-10.8v-80.3
			C305.9,260.9,301,256,295.1,256z"/>
	</g>
</g>
<g>
	<g>
		<path class="st0" d="M399.2,154h-80.3c-6,0-10.8,4.9-10.8,10.8v80.3c0,6,4.9,10.8,10.8,10.8h80.3c6,0,10.8-4.9,10.8-10.8v-80.3
			C410,158.9,405.2,154,399.2,154z"/>
	</g>
</g>
<g>
	<g>
		<path class="st0" d="M501.2,52.1h-80.3c-6,0-10.8,4.9-10.8,10.8v80.3c0,6,4.9,10.8,10.8,10.8h80.3c6,0,10.8-4.9,10.8-10.8V62.9
			C512,56.9,507.1,52.1,501.2,52.1z"/>
	</g>
</g>
</svg>
